<svg width="70" height="70" viewBox="0 0 70 70" fill="none" xmlns="http://www.w3.org/2000/svg">
<rect width="70" height="70" rx="13" fill="#34A56F" fill-opacity="0.1"/>
<path d="M24.1886 21.0102C24.5398 21.0102 24.8245 20.7255 24.8245 20.3743C24.8245 20.0231 24.5398 19.7384 24.1886 19.7384C23.8374 19.7384 23.5527 20.0231 23.5527 20.3743C23.5527 20.7255 23.8374 21.0102 24.1886 21.0102Z" fill="#121219"/>
<path d="M21.6437 21.0102C21.9949 21.0102 22.2796 20.7255 22.2796 20.3743C22.2796 20.0231 21.9949 19.7384 21.6437 19.7384C21.2925 19.7384 21.0078 20.0231 21.0078 20.3743C21.0078 20.7255 21.2925 21.0102 21.6437 21.0102Z" fill="#121219"/>
<path d="M19.1007 21.0102C19.4519 21.0102 19.7366 20.7255 19.7366 20.3743C19.7366 20.0231 19.4519 19.7384 19.1007 19.7384C18.7495 19.7384 18.4648 20.0231 18.4648 20.3743C18.4648 20.7255 18.7495 21.0102 19.1007 21.0102Z" fill="#121219"/>
<path d="M53.44 23.5538H16.5578C16.2068 23.5538 15.9219 23.2689 15.9219 22.9179C15.9219 22.5669 16.2068 22.282 16.5578 22.282H53.44C53.7911 22.282 54.0759 22.5669 54.0759 22.9179C54.0759 23.2689 53.7911 23.5538 53.44 23.5538Z" fill="#121219"/>
<path d="M16.5578 42.6309C16.2068 42.6309 15.9219 42.346 15.9219 41.995V19.1025C15.9219 18.0507 16.7778 17.1948 17.8296 17.1948H52.1682C53.22 17.1948 54.0759 18.0507 54.0759 19.1025V30.5487C54.0759 30.8998 53.7911 31.1846 53.44 31.1846C53.089 31.1846 52.8041 30.8998 52.8041 30.5487V19.1025C52.8041 18.7528 52.5193 18.4666 52.1682 18.4666H17.8296C17.4786 18.4666 17.1937 18.7528 17.1937 19.1025V41.995C17.1937 42.346 16.9088 42.6309 16.5578 42.6309Z" fill="#121219"/>
<path d="M42.6288 54.0771H28.0031C27.6521 54.0771 27.3672 53.7922 27.3672 53.4412C27.3672 53.0902 27.6521 52.8053 28.0031 52.8053H29.2749C30.3267 52.8053 31.1826 51.9494 31.1826 50.8976V49.6258C31.1826 49.2748 31.4675 48.9899 31.8185 48.9899C32.1695 48.9899 32.4544 49.2748 32.4544 49.6258V50.8976C32.4544 51.6136 32.2166 52.2737 31.8172 52.8053H38.1788C37.7794 52.2737 37.5416 51.6136 37.5416 50.8976V47.0822C37.5416 46.7312 37.8265 46.4463 38.1775 46.4463C38.5285 46.4463 38.8134 46.7312 38.8134 47.0822V50.8976C38.8134 51.9494 39.6693 52.8053 40.7211 52.8053H42.6288C42.9798 52.8053 43.2647 53.0902 43.2647 53.4412C43.2647 53.7922 42.9798 54.0771 42.6288 54.0771Z" fill="#121219"/>
<path d="M38.1784 47.718H17.8296C16.7778 47.718 15.9219 46.8621 15.9219 45.8103V41.9949C15.9219 41.6439 16.2068 41.359 16.5578 41.359H34.363C34.714 41.359 34.9989 41.6439 34.9989 41.9949C34.9989 42.3459 34.714 42.6308 34.363 42.6308H17.1937V45.8103C17.1937 46.1601 17.4786 46.4462 17.8296 46.4462H38.1784C38.5294 46.4462 38.8143 46.7311 38.8143 47.0821C38.8143 47.4331 38.5294 47.718 38.1784 47.718Z" fill="#121219"/>
<path d="M38.1792 32.4564H36.9074C36.5564 32.4564 36.2715 32.1715 36.2715 31.8205C36.2715 31.4695 36.5564 31.1846 36.9074 31.1846H38.1792C38.5302 31.1846 38.8151 31.4695 38.8151 31.8205C38.8151 32.1715 38.5302 32.4564 38.1792 32.4564Z" fill="#121219"/>
<path d="M49.6254 27.3692H36.9074C36.5564 27.3692 36.2715 27.0843 36.2715 26.7333C36.2715 26.3823 36.5564 26.0974 36.9074 26.0974H49.6254C49.9764 26.0974 50.2613 26.3823 50.2613 26.7333C50.2613 27.0843 49.9764 27.3692 49.6254 27.3692Z" fill="#121219"/>
<path d="M49.6254 29.9128H36.9074C36.5564 29.9128 36.2715 29.6279 36.2715 29.2769C36.2715 28.9259 36.5564 28.641 36.9074 28.641H49.6254C49.9764 28.641 50.2613 28.9259 50.2613 29.2769C50.2613 29.6279 49.9764 29.9128 49.6254 29.9128Z" fill="#121219"/>
<path d="M24.1876 32.4564H20.3722C20.0212 32.4564 19.7363 32.1715 19.7363 31.8205C19.7363 31.4695 20.0212 31.1846 20.3722 31.1846H24.1876C24.5387 31.1846 24.8235 31.4695 24.8235 31.8205C24.8235 32.1715 24.5387 32.4564 24.1876 32.4564Z" fill="#121219"/>
<path d="M33.0903 27.3692H20.3722C20.0212 27.3692 19.7363 27.0843 19.7363 26.7333C19.7363 26.3823 20.0212 26.0974 20.3722 26.0974H33.0903C33.4413 26.0974 33.7262 26.3823 33.7262 26.7333C33.7262 27.0843 33.4413 27.3692 33.0903 27.3692Z" fill="#121219"/>
<path d="M33.0903 29.9128H20.3722C20.0212 29.9128 19.7363 29.6279 19.7363 29.2769C19.7363 28.9259 20.0212 28.641 20.3722 28.641H33.0903C33.4413 28.641 33.7262 28.9259 33.7262 29.2769C33.7262 29.6279 33.4413 29.9128 33.0903 29.9128Z" fill="#121219"/>
<path d="M45.1741 48.9899C40.2649 48.9899 36.2715 44.9952 36.2715 40.0873C36.2715 35.1794 40.2649 31.1847 45.1741 31.1847C46.8936 31.1847 48.5609 31.6756 49.9968 32.6028C50.2918 32.7935 50.3758 33.1865 50.185 33.4816C49.9942 33.7741 49.6025 33.8631 49.3062 33.6698C48.0776 32.8762 46.6481 32.4565 45.1741 32.4565C40.9657 32.4565 37.5433 35.8789 37.5433 40.0873C37.5433 44.2957 40.9657 47.7181 45.1741 47.7181C49.3825 47.7181 52.8049 44.2957 52.8049 40.0873C52.8049 39.2708 52.6765 38.4683 52.4246 37.7001C52.3153 37.3657 52.4971 37.007 52.8304 36.8976C53.1636 36.7857 53.5235 36.9701 53.6329 37.3021C53.9266 38.2 54.0767 39.136 54.0767 40.0873C54.0767 44.9952 50.0833 48.9899 45.1741 48.9899Z" fill="#121219"/>
<path d="M44.5383 43.5199C44.5332 43.5199 44.5282 43.5199 44.5231 43.5199C44.3387 43.5148 44.167 43.4322 44.0487 43.291L40.8692 39.4756C40.6453 39.2047 40.6822 38.8041 40.9506 38.579C41.2215 38.3551 41.6208 38.392 41.8472 38.6604L44.56 41.9174L52.4642 33.1865C52.7033 32.9271 53.1052 32.9118 53.3621 33.1471C53.6203 33.3849 53.6381 33.7868 53.4003 34.0463L45.0064 43.3139C44.8855 43.4461 44.7177 43.5199 44.5383 43.5199Z" fill="#121219"/>
</svg>
