<svg width="70" height="70" viewBox="0 0 70 70" fill="none" xmlns="http://www.w3.org/2000/svg">
<rect width="70" height="70" rx="13" fill="#34A56F" fill-opacity="0.1"/>
<path d="M15.3371 40.0873C14.9861 40.0873 14.7012 39.8024 14.7012 39.4514V19.1025C14.7012 18.0507 15.5571 17.1948 16.6089 17.1948H50.9475C51.9993 17.1948 52.8552 18.0507 52.8552 19.1025V21.0102C52.8552 21.3612 52.5704 21.6461 52.2193 21.6461C51.8683 21.6461 51.5834 21.3612 51.5834 21.0102V19.1025C51.5834 18.7528 51.2973 18.4666 50.9475 18.4666H16.6089C16.2591 18.4666 15.973 18.7528 15.973 19.1025V39.4514C15.973 39.8024 15.6881 40.0873 15.3371 40.0873Z" fill="#263238"/>
<path d="M33.7773 54.0771H26.7824C26.4314 54.0771 26.1465 53.7922 26.1465 53.4412C26.1465 53.0901 26.4314 52.8053 26.7824 52.8053H28.0542C29.106 52.8053 29.9619 51.9493 29.9619 50.8976V47.7181C29.9619 47.367 30.2468 47.0822 30.5978 47.0822C30.9488 47.0822 31.2337 47.367 31.2337 47.7181V50.8976C31.2337 51.6136 30.9959 52.2737 30.5965 52.8053H33.7773C34.1283 52.8053 34.4132 53.0901 34.4132 53.4412C34.4132 53.7922 34.1283 54.0771 33.7773 54.0771Z" fill="#263238"/>
<path d="M33.1423 47.718H16.6089C15.5571 47.718 14.7012 46.8621 14.7012 45.8103V41.9949C14.7012 41.6439 14.9861 41.359 15.3371 41.359H33.1423C33.4933 41.359 33.7782 41.6439 33.7782 41.9949C33.7782 42.3459 33.4933 42.6308 33.1423 42.6308H15.973V45.8103C15.973 46.1601 16.2591 46.4462 16.6089 46.4462H33.1423C33.4933 46.4462 33.7782 46.7311 33.7782 47.0821C33.7782 47.4331 33.4933 47.718 33.1423 47.718Z" fill="#263238"/>
<path d="M40.7726 26.0974H47.1316C47.4826 26.0974 47.7675 25.8125 47.7675 25.4615C47.7675 25.1104 47.4826 24.8256 47.1316 24.8256H40.7726C40.4216 24.8256 40.1367 25.1104 40.1367 25.4615C40.1367 25.8125 40.4216 26.0974 40.7726 26.0974Z" fill="#263238"/>
<path d="M43.3175 51.5334H44.5893C44.9404 51.5334 45.2252 51.2485 45.2252 50.8975C45.2252 50.5465 44.9404 50.2616 44.5893 50.2616H43.3175C42.9665 50.2616 42.6816 50.5465 42.6816 50.8975C42.6816 51.2485 42.9665 51.5334 43.3175 51.5334Z" fill="#263238"/>
<path d="M49.6765 54.077H38.2303C36.4765 54.077 35.0508 52.6514 35.0508 50.8975V25.4615C35.0508 23.7077 36.4765 22.282 38.2303 22.282H49.6765C51.4303 22.282 52.856 23.7077 52.856 25.4615V50.8975C52.856 52.6514 51.4303 54.077 49.6765 54.077ZM38.2303 23.5538C37.1785 23.5538 36.3226 24.4097 36.3226 25.4615V50.8975C36.3226 51.9493 37.1785 52.8052 38.2303 52.8052H49.6765C50.7283 52.8052 51.5842 51.9493 51.5842 50.8975V25.4615C51.5842 24.4097 50.7283 23.5538 49.6765 23.5538H38.2303Z" fill="#263238"/>
</svg>
