<svg width="70" height="70" viewBox="0 0 70 70" fill="none" xmlns="http://www.w3.org/2000/svg">
<rect width="70" height="70" rx="13" fill="#34A56F" fill-opacity="0.1"/>
<path d="M40.5187 53.8888C38.7337 54.1114 36.8769 54.2244 34.9997 54.2244C24.4581 54.2244 15.552 50.5565 15.552 46.2151C15.552 44.1195 17.7026 42.0432 21.4524 40.5185C21.7829 40.3841 21.9419 40.0071 21.8076 39.6765C21.6732 39.3459 21.2963 39.1866 20.9656 39.3213C16.6413 41.0797 14.2598 43.528 14.2598 46.215C14.2598 51.4309 23.3699 55.5167 34.9997 55.5167C36.9302 55.5167 38.8409 55.4004 40.6787 55.1712C41.0328 55.127 41.2841 54.804 41.2399 54.4501C41.1957 54.096 40.8717 53.8446 40.5187 53.8888Z" fill="black"/>
<path d="M52.1751 49.9063C50.4031 51.2782 47.757 52.4084 44.5227 53.175C44.1754 53.2572 43.9606 53.6055 44.043 53.9527C44.1134 54.2498 44.3787 54.45 44.6712 54.45C44.7206 54.45 44.7707 54.4442 44.8208 54.4324C48.2328 53.6236 51.0495 52.412 52.9662 50.9282C53.2483 50.7097 53.3 50.3039 53.0815 50.0217C52.8632 49.7396 52.4573 49.688 52.1751 49.9063Z" fill="black"/>
<path d="M55.3803 44.4427C55.2442 44.113 54.8665 43.9555 54.5364 44.0921C54.2066 44.2283 54.0496 44.6061 54.1858 44.9359C54.36 45.3575 54.4482 45.7878 54.4482 46.2151C54.4482 46.6841 54.3418 47.1561 54.1322 47.6181C53.9846 47.9431 54.1286 48.3261 54.4534 48.4736C54.5401 48.5129 54.6309 48.5316 54.7201 48.5316C54.9658 48.5316 55.2008 48.3905 55.3088 48.1522C55.5953 47.5213 55.7405 46.8695 55.7405 46.215C55.7406 45.6177 55.6194 45.0214 55.3803 44.4427Z" fill="black"/>
<path d="M52.9665 41.5023C52.5041 41.1443 51.9817 40.7971 51.4137 40.4706C51.104 40.2924 50.7091 40.3991 50.5314 40.7085C50.3535 41.018 50.4601 41.413 50.7695 41.5908C51.2865 41.8882 51.7595 42.2021 52.1755 42.5242C52.2932 42.6153 52.4324 42.6594 52.5707 42.6594C52.7635 42.6594 52.9546 42.5732 53.082 42.4088C53.3004 42.1266 53.2488 41.7209 52.9665 41.5023Z" fill="black"/>
<path d="M25.0168 43.7986L34.6888 49.1107C34.6999 49.1168 34.7115 49.1213 34.7228 49.1267C34.7344 49.1322 34.7456 49.1381 34.7575 49.143C34.7749 49.15 34.7925 49.1555 34.8102 49.1609C34.8186 49.1635 34.8269 49.1669 34.8355 49.1691C34.8576 49.1749 34.88 49.179 34.9024 49.1825C34.9072 49.1832 34.912 49.1846 34.9167 49.1851C34.9441 49.1887 34.9718 49.1908 34.9993 49.1908C34.9995 49.1908 34.9996 49.1907 34.9998 49.1907C35 49.1907 35.0002 49.1908 35.0004 49.1908C35.0279 49.1908 35.0555 49.1888 35.083 49.1851C35.0878 49.1846 35.0925 49.1831 35.0972 49.1825C35.1196 49.179 35.1421 49.1749 35.1642 49.1691C35.1728 49.1669 35.1811 49.1635 35.1895 49.1609C35.2072 49.1555 35.2248 49.1501 35.2422 49.143C35.254 49.1381 35.2653 49.1322 35.2768 49.1267C35.2882 49.1213 35.2997 49.1168 35.3109 49.1107L44.9828 43.7986C45.1894 43.6852 45.3179 43.468 45.3179 43.2322V31.3248C45.3179 31.322 45.3174 31.3193 45.3174 31.3164C45.3174 31.3136 45.3177 31.3107 45.3177 31.3078C45.3175 31.2975 45.3156 31.2873 45.3148 31.277C45.3135 31.261 45.3126 31.245 45.3101 31.2293C45.3082 31.2161 45.3053 31.2034 45.3025 31.1905C45.2992 31.1752 45.296 31.1599 45.2917 31.145C45.288 31.1323 45.2835 31.12 45.279 31.1076C45.2738 31.0931 45.2685 31.0786 45.2622 31.0645C45.257 31.0526 45.2511 31.041 45.2451 31.0293C45.238 31.0157 45.2308 31.0021 45.2227 30.989C45.216 30.9778 45.2088 30.9671 45.2013 30.9564C45.1924 30.9438 45.1833 30.9315 45.1736 30.9194C45.1653 30.9092 45.1567 30.8993 45.1479 30.8896C45.1376 30.8783 45.1269 30.8675 45.1157 30.8569C45.106 30.8476 45.0961 30.8387 45.0858 30.8301C45.0742 30.8202 45.0621 30.8112 45.0496 30.8022C45.0385 30.7941 45.0273 30.7863 45.0156 30.7788C45.0105 30.7757 45.0059 30.7718 45.0008 30.7687C44.9925 30.7639 44.9836 30.7603 44.9751 30.7558C44.9675 30.7517 44.9604 30.7467 44.9526 30.7429L35.2806 26.0764C35.1032 25.9908 34.8964 25.9908 34.719 26.0764L25.047 30.7429C25.039 30.7467 25.0321 30.7517 25.0245 30.7558C25.016 30.7603 25.0071 30.7639 24.9988 30.7687C24.9935 30.7718 24.9891 30.7757 24.984 30.7788C24.9723 30.7863 24.961 30.7941 24.9499 30.8022C24.9375 30.8112 24.9253 30.8202 24.9137 30.8301C24.9034 30.8387 24.8935 30.8477 24.8838 30.8569C24.8726 30.8674 24.8619 30.8783 24.8516 30.8896C24.8427 30.8994 24.8342 30.9092 24.8259 30.9194C24.8161 30.9315 24.8071 30.9438 24.7983 30.9564C24.7909 30.9671 24.7836 30.9779 24.7768 30.989C24.7688 31.0021 24.7615 31.0157 24.7545 31.0293C24.7485 31.041 24.7426 31.0526 24.7373 31.0645C24.7311 31.0786 24.7258 31.0931 24.7206 31.1076C24.7162 31.12 24.7117 31.1323 24.708 31.145C24.7037 31.1599 24.7003 31.1752 24.6971 31.1905C24.6943 31.2034 24.6914 31.2161 24.6894 31.2293C24.687 31.245 24.6859 31.261 24.6848 31.277C24.684 31.2873 24.6821 31.2975 24.6818 31.3078C24.6817 31.3107 24.6822 31.3136 24.6822 31.3164C24.6822 31.3193 24.6816 31.3221 24.6816 31.3248V43.2322C24.6818 43.468 24.8102 43.6852 25.0168 43.7986ZM25.9741 32.417L34.3538 37.0194V45.0822C34.3538 45.4392 34.6431 45.7285 34.9999 45.7285C35.3569 45.7285 35.6461 45.4392 35.6461 45.0822V36.637C35.6461 36.6237 35.6441 36.6109 35.6434 36.5977C35.6427 36.5873 35.6424 36.577 35.6414 36.5667C35.6397 36.5516 35.6372 36.5369 35.6345 36.522C35.6326 36.5118 35.6306 36.5017 35.6284 36.4917C35.6259 36.4812 35.6241 36.4704 35.6212 36.4602C35.6196 36.4549 35.6175 36.45 35.6157 36.4447C35.6103 36.4272 35.6046 36.4097 35.5977 36.3927C35.5965 36.3899 35.5957 36.3867 35.5946 36.3838C35.5906 36.3744 35.5852 36.3658 35.5807 36.3568C35.5762 36.3474 35.5718 36.3384 35.5668 36.3292C35.5593 36.3153 35.5512 36.3016 35.5425 36.2882C35.537 36.2796 35.5313 36.2714 35.5254 36.2632C35.5197 36.2551 35.5148 36.2465 35.5087 36.2388C35.5064 36.2358 35.5037 36.2332 35.5014 36.2302C35.4897 36.216 35.4771 36.2024 35.4643 36.1891C35.4608 36.1855 35.4579 36.1814 35.4543 36.1778C35.4465 36.1702 35.438 36.1635 35.4299 36.1562C35.4222 36.1493 35.4143 36.1425 35.4062 36.1361C35.3944 36.1263 35.3824 36.1171 35.3699 36.1083C35.3617 36.1025 35.3533 36.0976 35.3449 36.0923C35.3336 36.085 35.3229 36.077 35.3111 36.0704L26.738 31.3618L34.9999 27.3759L43.2619 31.362L37.4619 34.5475C37.1492 34.7193 37.0348 35.1122 37.2066 35.4251C37.2688 35.5382 37.3602 35.6242 37.466 35.6813C37.6526 35.782 37.8844 35.7899 38.084 35.6803L44.0257 32.417V42.85L34.9999 47.8072L25.9741 42.85V32.417Z" fill="black"/>
<path d="M16.3464 30.0326C16.7071 30.2673 17.0637 30.6162 17.4062 31.0699C17.6212 31.3547 18.0265 31.4111 18.3113 31.1961C18.5961 30.9811 18.6526 30.5759 18.4375 30.291C18.1832 29.9542 17.9174 29.6595 17.6427 29.4094C18.0449 28.9396 18.6258 28.2021 19.1021 27.3646C19.3689 28.0494 19.7576 28.7989 20.3102 29.3877C19.8068 30.101 18.9256 31.4956 18.5889 32.9362C18.5076 33.2836 18.7236 33.6313 19.0711 33.7124C19.1205 33.724 19.17 33.7296 19.2186 33.7296C19.512 33.7295 19.7776 33.5283 19.8473 33.2303C20.2521 31.4986 21.6662 29.7276 21.6802 29.7104C21.7901 29.5743 21.84 29.3995 21.8188 29.226C21.7977 29.0525 21.7069 28.895 21.5676 28.7893C20.2591 27.798 19.8606 25.3124 19.8569 25.2882C19.8097 24.9798 19.5491 24.7492 19.2373 24.7398C18.9269 24.7312 18.6516 24.9452 18.5862 25.2503C18.2111 27.0006 16.2564 29.0193 16.237 29.0392C16.1016 29.1776 16.0354 29.3695 16.0566 29.5619C16.0777 29.7542 16.1841 29.927 16.3464 30.0326Z" fill="black"/>
<path d="M31.9051 19.7764C32.2899 20.0268 32.6689 20.4061 33.0318 20.9038C33.242 21.1921 33.6463 21.2556 33.9346 21.0451C34.2229 20.8349 34.2863 20.4308 34.0761 20.1423C33.7975 19.7602 33.5049 19.4294 33.2014 19.1533C33.6035 18.6834 34.1845 17.946 34.6608 17.1084C34.9276 17.7933 35.3162 18.5427 35.8689 19.1315C35.3655 19.8448 34.4843 21.2395 34.1476 22.68C34.0663 23.0275 34.2823 23.375 34.6298 23.4563C34.6792 23.4678 34.7287 23.4734 34.7773 23.4734C35.0707 23.4734 35.3362 23.2721 35.4059 22.9741C35.8107 21.2425 37.2249 19.4714 37.2389 19.4541C37.3488 19.3181 37.3988 19.1433 37.3775 18.9697C37.3563 18.7961 37.2656 18.6386 37.1263 18.5331C35.8176 17.5417 35.4193 15.0562 35.4155 15.032C35.3684 14.7236 35.1077 14.4929 34.796 14.4835C34.4837 14.4735 34.2103 14.6889 34.1449 14.9941C33.7698 16.7444 31.815 18.763 31.7956 18.7829C31.6602 18.9214 31.594 19.1132 31.6152 19.3055C31.6364 19.4981 31.7428 19.6709 31.9051 19.7764Z" fill="black"/>
<path d="M47.3798 28.2743C47.6653 28.4601 47.9501 28.7192 48.2261 29.0446C48.4571 29.3169 48.8648 29.3504 49.1369 29.1194C49.4091 28.8885 49.4425 28.4807 49.2116 28.2086C49.038 28.0038 48.8589 27.8176 48.676 27.6512C49.0781 27.1813 49.6591 26.4439 50.1354 25.6063C50.4023 26.2912 50.7907 27.0406 51.3434 27.6294C50.8401 28.3428 49.9588 29.7375 49.6222 31.1781C49.5409 31.5254 49.7569 31.873 50.1044 31.9542C50.1538 31.9658 50.2033 31.9714 50.2519 31.9714C50.5453 31.9713 50.8109 31.77 50.8806 31.472C51.2853 29.7403 52.6995 27.9693 52.7135 27.9521C52.8234 27.8161 52.8734 27.6413 52.8521 27.4678C52.831 27.2943 52.7403 27.1366 52.601 27.0311C51.2923 26.0397 50.894 23.5542 50.8902 23.5299C50.843 23.2215 50.5824 22.9909 50.2707 22.9814C49.9589 22.9735 49.6849 23.1869 49.6196 23.4919C49.2444 25.2422 47.2897 27.2609 47.2702 27.2808C47.1348 27.4193 47.0686 27.6111 47.0898 27.8035C47.1111 27.9959 47.2174 28.1687 47.3798 28.2743Z" fill="black"/>
</svg>
