<svg width="70" height="70" viewBox="0 0 70 70" fill="none" xmlns="http://www.w3.org/2000/svg">
<rect width="70" height="70" rx="13" fill="#34A56F" fill-opacity="0.1"/>
<path d="M46.5008 15.7922H23.5007C19.2506 15.7922 15.793 19.2499 15.793 23.5V46.5002C15.793 50.7502 19.2506 54.2079 23.5007 54.2079H46.5009C50.7509 54.2079 54.2086 50.7502 54.2086 46.5002V23.5C54.2086 19.25 50.7509 15.7922 46.5008 15.7922ZM53.0239 34.4078H48.1448C47.8177 34.4078 47.5525 34.673 47.5525 35.0001C47.5525 35.3273 47.8177 35.5924 48.1448 35.5924H53.0239V46.5002C53.0239 50.097 50.0977 53.0233 46.5008 53.0233H35.593V50.8585C35.593 50.5314 35.3277 50.2661 35.0007 50.2661C34.6737 50.2661 34.4084 50.5314 34.4084 50.8585V53.0233H23.5007C19.9038 53.0233 16.9776 50.097 16.9776 46.5002V35.5924H24.8604C25.1874 35.5924 25.4526 35.3273 25.4526 35.0001C25.4526 34.673 25.1874 34.4078 24.8604 34.4078H16.9776V23.5001C16.9776 19.9032 19.9038 16.977 23.5007 16.977H34.4084V20.6182C34.4084 20.9454 34.6737 21.2105 35.0007 21.2105C35.3277 21.2105 35.593 20.9454 35.593 20.6182V16.9769H46.5008C50.0977 16.9769 53.0239 19.9031 53.0239 23.5V34.4078Z" fill="black"/>
<path d="M45.6813 32.5223C44.7255 31.7978 42.8423 30.2292 40.9689 27.863C40.5383 27.319 40.094 26.8815 39.6484 26.5286C39.5356 26.3732 39.1104 25.7435 38.8196 24.7007C38.5256 23.6459 37.6299 22.8916 36.5376 22.779L33.8143 22.4986C32.5199 22.3649 31.2348 22.8013 30.2887 23.6949C29.3483 24.5837 28.0651 26.0543 27.292 28.0131C26.7918 29.2803 26.7355 30.7307 27.1333 32.097C27.5314 33.4644 28.1164 35.9924 27.5632 37.5603C27.2988 38.3099 27.3766 39.1433 27.7771 39.8469C27.8863 40.0387 28.0864 40.1464 28.2924 40.1464C28.3917 40.1464 28.4924 40.1214 28.585 40.0687C28.8691 39.9069 28.9686 39.5454 28.8067 39.2611C28.5763 38.8562 28.5302 38.3801 28.6804 37.9545C29.3106 36.168 28.8056 33.6031 28.2707 31.7658C27.946 30.6504 27.9898 29.4721 28.394 28.4481C29.0871 26.6918 30.2495 25.3622 31.1024 24.5559C31.7976 23.8992 32.7429 23.5793 33.6929 23.6768L36.4163 23.9573C37.0115 24.0186 37.5186 24.4453 37.6786 25.0188C37.7273 25.1931 37.7793 25.3573 37.8333 25.5126C36.0203 24.8697 34.485 25.318 34.1669 25.4261C33.7324 25.5249 30.932 26.3207 30.1712 30.5065C29.748 32.8338 30.4324 34.6401 31.0813 35.7454C31.5789 36.5934 31.524 37.6339 30.9415 38.3961C29.6545 40.0796 29.1227 41.6365 29.3611 43.0235C29.4879 43.7628 29.8153 44.3103 30.1181 44.6775C28.4193 46.0333 28.5273 47.8082 28.8666 48.6285C28.9584 48.85 29.1744 48.9944 29.414 48.9944H43.6308C43.9579 48.9944 44.2231 48.7291 44.2231 48.4021C44.2231 46.4537 43.5381 45.2979 43.0522 44.7232C43.6061 43.9547 43.7649 43.0036 43.5377 41.8346C43.3441 40.8382 42.7666 39.9548 41.9117 39.3468C40.0602 38.0304 39.0884 36.5324 38.6222 35.6019C39.4879 35.6064 40.188 35.3186 40.584 35.1029L41.7119 35.7861C42.7531 36.4169 44.1069 36.2823 45.0036 35.4582L45.7886 34.7368C46.1041 34.447 46.2734 34.0353 46.2532 33.6073C46.2329 33.1779 46.0244 32.7825 45.6813 32.5223ZM44.9873 33.8646L44.2022 34.5859C43.6913 35.0555 42.9193 35.1324 42.3258 34.7729L40.8881 33.902C40.6798 33.7758 40.4152 33.79 40.2217 33.9379C40.2117 33.9455 39.2025 34.6973 37.893 34.3007C37.6836 34.1898 36.6008 33.5721 36.0447 32.3857C35.9058 32.0893 35.5532 31.9618 35.2571 32.1006C34.9609 32.2395 34.8333 32.592 34.9721 32.8883C35.5978 34.2239 36.7016 34.9803 37.1851 35.2619C37.4537 36.0239 38.4556 38.3428 41.2253 40.3123C41.8226 40.7369 42.2415 41.3743 42.375 42.0607C42.5532 42.9779 42.4303 43.636 41.9827 44.1626H39.2168C38.8898 44.1626 38.6245 44.4277 38.6245 44.7549C38.6245 45.082 38.8898 45.3472 39.2168 45.3472H42.0221C42.2853 45.6058 42.882 46.3425 43.0129 47.8098H29.868C29.7858 47.2647 29.8529 46.2143 31.2228 45.3472H36.1976C36.5246 45.3472 36.7899 45.082 36.7899 44.7549C36.7899 44.4277 36.5246 44.1626 36.1976 44.1626H31.2562C31.0487 43.9777 30.643 43.5327 30.5246 42.799C30.3581 41.7694 30.8276 40.4956 31.8826 39.1156C32.7588 37.9691 32.8453 36.4108 32.103 35.146C31.307 33.7897 31.049 32.3 31.3366 30.7185C31.9907 27.1207 34.3288 26.6017 34.438 26.5795C34.4732 26.5727 34.5104 26.5617 34.5438 26.5488C34.6648 26.5018 37.5369 25.436 40.0402 28.5983C41.9947 31.0671 43.9652 32.7081 44.9657 33.4665C45.0513 33.5315 45.0677 33.6178 45.07 33.6635C45.0721 33.7082 45.0642 33.7938 44.9873 33.8646Z" fill="black"/>
<path d="M35.1029 29.7054C34.7773 29.6678 34.4846 29.9026 34.4482 30.2277C34.425 30.433 34.4116 30.6362 34.4083 30.8319C34.4027 31.159 34.6633 31.4286 34.9904 31.4341C34.9938 31.4342 34.9973 31.4342 35.0006 31.4342C35.3231 31.4342 35.5871 31.1756 35.5926 30.8519C35.5954 30.6937 35.6063 30.5283 35.6251 30.3602C35.6618 30.0353 35.428 29.742 35.1029 29.7054Z" fill="black"/>
<path d="M38.8528 29.7238C38.613 29.5012 38.2384 29.5151 38.0157 29.7547C37.7931 29.9944 37.807 30.3691 38.0466 30.5918L38.1933 30.7281C38.3074 30.8339 38.452 30.8864 38.5962 30.8864C38.7551 30.8864 38.9136 30.8228 39.0303 30.6973C39.253 30.4575 39.2391 30.0828 38.9993 29.8601L38.8528 29.7238Z" fill="black"/>
<path d="M33.7861 38.5028C33.4964 38.6547 33.3847 39.0128 33.5366 39.3024C34.0752 40.3298 34.9913 41.7115 36.2974 42.4605C36.3903 42.5138 36.4916 42.5391 36.5915 42.5391C36.7968 42.5391 36.9964 42.4321 37.1058 42.2413C37.2685 41.9576 37.1704 41.5957 36.8866 41.4328C35.7724 40.7937 34.9668 39.4791 34.5857 38.7525C34.4339 38.4626 34.0757 38.3511 33.7861 38.5028Z" fill="black"/>
<path d="M25.6201 22.4685C24.0227 21.7349 23.6481 19.6985 23.6446 19.6797C23.595 19.3868 23.3323 19.1704 23.0396 19.1868C22.7429 19.1974 22.4998 19.426 22.4712 19.7215C22.2931 21.5585 20.4664 22.7238 20.4367 22.7425C20.159 22.9145 20.073 23.2788 20.2446 23.5569C20.4162 23.8352 20.7809 23.9217 21.0596 23.7499C21.1298 23.7066 22.352 22.9386 23.0988 21.5797C23.393 22.116 23.8163 22.6834 24.418 23.1272C24.0446 23.5457 23.5565 24.1791 23.1676 24.9838C23.1248 24.9023 23.0792 24.8198 23.0306 24.7365C22.8653 24.454 22.503 24.3589 22.2203 24.5237C21.9379 24.6887 21.8427 25.0515 22.0075 25.3339C22.4791 26.141 22.6024 26.8772 22.6033 26.8827C22.6476 27.1685 22.8921 27.3804 23.1812 27.3839C23.1837 27.3839 23.1862 27.3839 23.1886 27.3839C23.4746 27.3839 23.7203 27.1792 23.7714 26.897C24.1401 24.8576 25.74 23.4716 25.7552 23.4587C25.9099 23.3279 25.9869 23.1271 25.9595 22.9263C25.9322 22.7259 25.8041 22.5532 25.6201 22.4685Z" fill="black"/>
<path d="M49.6863 25.5676C48.0891 24.8339 47.7144 22.7976 47.711 22.7787C47.6613 22.486 47.3985 22.2713 47.1059 22.2859C46.8093 22.2964 46.5662 22.5251 46.5376 22.8206C46.3598 24.6531 44.5414 25.8173 44.5031 25.8415C44.2254 26.0134 44.1394 26.3779 44.3109 26.656C44.4825 26.9342 44.8475 27.0206 45.126 26.8491C45.1962 26.8059 46.4183 26.0377 47.1652 24.6789C47.4594 25.2152 47.8826 25.7825 48.4842 26.2264C48.1108 26.6448 47.6226 27.2784 47.2338 28.0832C47.191 28.0016 47.1454 27.9189 47.0968 27.8357C46.9315 27.5533 46.5686 27.458 46.2865 27.6231C46.0041 27.7881 45.9089 28.1508 46.0738 28.4332C46.5455 29.2403 46.6688 29.9764 46.6696 29.9818C46.714 30.2677 46.9584 30.4795 47.2476 30.4831C47.25 30.4831 47.2526 30.4831 47.255 30.4831C47.5409 30.4831 47.7866 30.2783 47.8377 29.9962C48.2064 27.9569 49.8064 26.5708 49.8215 26.5579C49.9762 26.427 50.0531 26.2263 50.0257 26.0255C49.9983 25.8248 49.8703 25.6522 49.6863 25.5676Z" fill="black"/>
<path d="M25.62 46.1252C24.0226 45.3915 23.648 43.355 23.6445 43.3363C23.5949 43.0435 23.3322 42.8296 23.0396 42.8434C22.7428 42.854 22.4997 43.0826 22.4711 43.3781C22.2923 45.2207 20.4547 46.3876 20.4363 46.3993C20.159 46.5714 20.073 46.9357 20.2446 47.2136C20.4162 47.492 20.7814 47.5783 21.0597 47.4066C21.1298 47.3634 22.3521 46.5953 23.0989 45.2364C23.393 45.7727 23.8163 46.34 24.418 46.7839C24.0446 47.2022 23.5565 47.8359 23.1675 48.6405C23.1248 48.559 23.0792 48.4766 23.0307 48.3933C22.8653 48.1108 22.503 48.0157 22.2203 48.1805C21.938 48.3457 21.8427 48.7084 22.0076 48.9909C22.4791 49.7978 22.6024 50.5341 22.6034 50.5395C22.6476 50.8254 22.8921 51.0372 23.1812 51.0408C23.1837 51.0408 23.1862 51.0408 23.1887 51.0408C23.4746 51.0408 23.7204 50.8361 23.7714 50.554C24.1401 48.5144 25.74 47.1286 25.7552 47.1155C25.9099 46.9848 25.9869 46.784 25.9595 46.5832C25.9321 46.3826 25.804 46.2098 25.62 46.1252Z" fill="black"/>
</svg>
