<svg width="70" height="70" viewBox="0 0 70 70" fill="none" xmlns="http://www.w3.org/2000/svg">
<rect width="70" height="70" rx="13" fill="#34A56F" fill-opacity="0.1"/>
<g clip-path="url(#clip0_80_1171)">
<path d="M42.1991 24.9202C47.7662 24.9202 52.2791 23.3084 52.2791 21.3202C52.2791 19.332 47.7662 17.7202 42.1991 17.7202C36.6321 17.7202 32.1191 19.332 32.1191 21.3202C32.1191 23.3084 36.6321 24.9202 42.1991 24.9202Z" stroke="#32323F" stroke-width="2" stroke-miterlimit="10" stroke-linecap="round" stroke-linejoin="round"/>
<path d="M32.1191 22.04C32.1191 22.6967 32.1191 25.7034 32.1191 26.36C32.1191 28.348 36.6307 29.96 42.1991 29.96C47.7676 29.96 52.2791 28.348 52.2791 26.36C52.2791 25.7034 52.2791 22.6967 52.2791 22.04" stroke="#32323F" stroke-width="2" stroke-miterlimit="10" stroke-linecap="round" stroke-linejoin="round"/>
<path d="M37.5547 34.5962C38.9443 34.8539 40.524 35.0001 42.1987 35.0001C47.7672 35.0001 52.2787 33.388 52.2787 31.4001C52.2787 30.7434 52.2787 27.7367 52.2787 27.0801" stroke="#32323F" stroke-width="2" stroke-miterlimit="10" stroke-linecap="round" stroke-linejoin="round"/>
<path d="M32.1191 27.0801C32.1191 27.7367 32.1191 30.1545 32.1191 30.1545" stroke="#32323F" stroke-width="2" stroke-miterlimit="10" stroke-linecap="round" stroke-linejoin="round"/>
<path d="M37.8984 39.6967C39.2031 39.917 40.6611 40.0401 42.2004 40.0401C47.7689 40.0401 52.2804 38.4288 52.2804 36.4401C52.2804 35.7835 52.2804 32.7768 52.2804 32.1201" stroke="#32323F" stroke-width="2" stroke-miterlimit="10" stroke-linecap="round" stroke-linejoin="round"/>
<path d="M37.8418 44.7274C39.1601 44.9534 40.6383 45.0802 42.1992 45.0802C47.7677 45.0802 52.2792 43.4688 52.2792 41.4802C52.2792 40.8235 52.2792 37.8168 52.2792 37.1602" stroke="#32323F" stroke-width="2" stroke-miterlimit="10" stroke-linecap="round" stroke-linejoin="round"/>
<path d="M27.7987 37.16C33.3658 37.16 37.8787 35.5482 37.8787 33.56C37.8787 31.5717 33.3658 29.96 27.7987 29.96C22.2317 29.96 17.7188 31.5717 17.7188 33.56C17.7188 35.5482 22.2317 37.16 27.7987 37.16Z" stroke="#32323F" stroke-width="2" stroke-miterlimit="10" stroke-linecap="round" stroke-linejoin="round"/>
<path d="M17.7188 34.2798C17.7188 34.9364 17.7188 37.9431 17.7188 38.5998C17.7188 40.5884 22.2303 42.1998 27.7987 42.1998C33.3672 42.1998 37.8787 40.5884 37.8787 38.5998C37.8787 37.9431 37.8787 34.9364 37.8787 34.2798" stroke="#32323F" stroke-width="2" stroke-miterlimit="10" stroke-linecap="round" stroke-linejoin="round"/>
<path d="M17.7188 39.3198C17.7188 39.9765 17.7188 42.9832 17.7188 43.6398C17.7188 45.6285 22.2303 47.2398 27.7987 47.2398C33.3672 47.2398 37.8787 45.6285 37.8787 43.6398C37.8787 42.9832 37.8787 39.9765 37.8787 39.3198" stroke="#32323F" stroke-width="2" stroke-miterlimit="10" stroke-linecap="round" stroke-linejoin="round"/>
<path d="M17.7188 44.3599C17.7188 45.0165 17.7188 48.0232 17.7188 48.6799C17.7188 50.6685 22.2303 52.2799 27.7987 52.2799C33.3672 52.2799 37.8787 50.6685 37.8787 48.6799C37.8787 48.0232 37.8787 45.0165 37.8787 44.3599" stroke="#32323F" stroke-width="2" stroke-miterlimit="10" stroke-linecap="round" stroke-linejoin="round"/>
</g>
<defs>
<clipPath id="clip0_80_1171">
<rect width="36" height="36" fill="white" transform="translate(17 17)"/>
</clipPath>
</defs>
</svg>
