<svg width="70" height="70" viewBox="0 0 70 70" fill="none" xmlns="http://www.w3.org/2000/svg">
<rect width="70" height="70" rx="13" fill="#34A56F" fill-opacity="0.1"/>
<rect x="37.85" y="26.4584" width="7.3" height="26.3" rx="1.65" stroke="#323D44" stroke-width="1.3"/>
<rect x="26.85" y="35.4584" width="7.3" height="17.3" rx="1.65" stroke="#323D44" stroke-width="1.3"/>
<rect x="16.85" y="42.4584" width="6.3" height="10.3" rx="1.65" stroke="#323D44" stroke-width="1.3"/>
<path d="M14 39.1084C21.1667 37.6084 36.1 31.9084 38.5 21.1084" stroke="#323D44" stroke-width="1.3" stroke-linecap="round"/>
<path d="M43.5232 20.8582L41.0893 13.9586C40.8716 13.3415 40.0676 13.1915 39.642 13.6886L34.8837 19.2462C34.4582 19.7432 34.7303 20.5146 35.3735 20.6346L42.5657 21.9766C43.2089 22.0966 43.7408 21.4753 43.5232 20.8582Z" stroke="#323D44" stroke-width="1.3"/>
<rect x="33.5" y="40.1084" width="22" height="17" fill="#D4DFDA"/>
<circle cx="41.5" cy="48.1084" r="6.35" stroke="#323D44" stroke-width="1.3"/>
<path d="M41 44.1084V49.6084H44" stroke="#323D44" stroke-width="1.3"/>
</svg>
