<svg width="70" height="70" viewBox="0 0 70 70" fill="none" xmlns="http://www.w3.org/2000/svg">
<g filter="url(#filter0_d_80_1091)">
<circle cx="25" cy="25" r="25" transform="matrix(-1 0 0 1 60 6)" fill="#EBEBEB" fill-opacity="0.7"/>
<path d="M28.8038 32.317C28.4133 31.9264 28.4133 31.2933 28.8038 30.9028L35.1678 24.5388C35.5583 24.1483 36.1915 24.1483 36.582 24.5388C36.9725 24.9293 36.9725 25.5625 36.582 25.953L30.9252 31.6099L36.582 37.2667C36.9725 37.6572 36.9725 38.2904 36.582 38.6809C36.1915 39.0715 35.5583 39.0715 35.1678 38.6809L28.8038 32.317ZM30.7305 32.6099L29.511 32.6099L29.511 30.6099L30.7305 30.6099L30.7305 32.6099Z" fill="black"/>
</g>
<defs>
<filter id="filter0_d_80_1091" x="0" y="0" width="70" height="70" filterUnits="userSpaceOnUse" color-interpolation-filters="sRGB">
<feFlood flood-opacity="0" result="BackgroundImageFix"/>
<feColorMatrix in="SourceAlpha" type="matrix" values="0 0 0 0 0 0 0 0 0 0 0 0 0 0 0 0 0 0 127 0" result="hardAlpha"/>
<feOffset dy="4"/>
<feGaussianBlur stdDeviation="5"/>
<feComposite in2="hardAlpha" operator="out"/>
<feColorMatrix type="matrix" values="0 0 0 0 0 0 0 0 0 0 0 0 0 0 0 0 0 0 0.25 0"/>
<feBlend mode="normal" in2="BackgroundImageFix" result="effect1_dropShadow_80_1091"/>
<feBlend mode="normal" in="SourceGraphic" in2="effect1_dropShadow_80_1091" result="shape"/>
</filter>
</defs>
</svg>
