<svg width="70" height="70" viewBox="0 0 70 70" fill="none" xmlns="http://www.w3.org/2000/svg">
<rect width="70" height="70" rx="13" fill="#34A56F" fill-opacity="0.1"/>
<path fill-rule="evenodd" clip-rule="evenodd" d="M49.8981 28.781C48.5309 28.412 45.3164 28.4165 40.6144 28.2882C40.8364 27.233 40.8878 26.2812 40.8878 24.5915C40.8878 20.555 38.0287 17 35.5 17C33.7139 17 32.2417 18.5019 32.2188 20.3491C32.1947 22.6149 31.5133 26.5276 27.8438 28.5121C27.5747 28.6584 26.8047 29.0487 26.692 29.0994L26.75 29.15C26.1758 28.6404 25.3795 28.25 24.5625 28.25H21.2812C19.4722 28.25 18 29.7642 18 31.625V49.625C18 51.4857 19.4722 53 21.2812 53H24.5625C25.8641 53 26.9534 52.1911 27.4806 51.0571C27.4938 51.0616 27.5167 51.0684 27.532 51.0706C27.6042 51.0909 27.6895 51.1123 27.7934 51.1404C27.8131 51.146 27.823 51.1483 27.8438 51.1539C28.4738 51.3148 29.6867 51.6129 32.2789 52.226C32.8345 52.3565 35.7702 53 38.8108 53H44.7903C46.6125 53 47.9261 52.2789 48.7081 50.831C48.7191 50.8085 48.9706 50.3034 49.1763 49.6205C49.3305 49.1064 49.3873 48.3785 49.2014 47.6405C50.3761 46.8102 50.7545 45.5548 51.0006 44.738C51.413 43.3981 51.2894 42.3913 51.0028 41.6701C51.6634 41.0289 52.2267 40.0513 52.4641 38.5584C52.6117 37.6336 52.4531 36.6819 52.0386 35.8899C52.6577 35.1744 52.9398 34.2744 52.9727 33.4419L52.9858 33.2068C52.9934 33.0594 53 32.9683 53 32.6442C53 31.2234 52.043 29.411 49.8981 28.781ZM25.6562 49.625C25.6562 50.2471 25.1673 50.75 24.5625 50.75H21.2812C20.6764 50.75 20.1875 50.2471 20.1875 49.625V31.625C20.1875 31.0029 20.6764 30.5 21.2812 30.5H24.5625C25.1673 30.5 25.6562 31.0029 25.6562 31.625V49.625ZM50.7873 33.3519C50.7655 33.9076 50.5391 35 48.625 35C46.9844 35 46.4375 35 46.4375 35C46.1345 35 45.8906 35.252 45.8906 35.5625C45.8906 35.873 46.1345 36.125 46.4375 36.125C46.4375 36.125 46.9166 36.125 48.5572 36.125C50.1978 36.125 50.4133 37.5245 50.3072 38.1995C50.1716 39.0387 49.7887 40.625 47.9414 40.625C46.0963 40.625 45.3438 40.625 45.3438 40.625C45.0408 40.625 44.7969 40.8759 44.7969 41.1875C44.7969 41.4969 45.0408 41.75 45.3438 41.75C45.3438 41.75 46.6431 41.75 47.4973 41.75C49.3436 41.75 49.1806 43.1979 48.9159 44.0619C48.567 45.197 48.3538 46.25 46.0273 46.25C45.2409 46.25 44.2434 46.25 44.2434 46.25C43.9405 46.25 43.6966 46.5009 43.6966 46.8125C43.6966 47.1219 43.9405 47.375 44.2434 47.375C44.2434 47.375 45.0014 47.375 45.9584 47.375C47.155 47.375 47.2108 48.5394 47.0861 48.9568C46.9494 49.4135 46.7875 49.7521 46.7809 49.7679C46.4506 50.381 45.918 50.75 44.7903 50.75H38.8108C35.8073 50.75 32.828 50.0491 32.7514 50.0311C28.208 48.9545 27.9684 48.8713 27.683 48.788C27.683 48.788 26.7577 48.6271 26.7577 47.7969L26.75 32.2584C26.75 31.7308 27.077 31.2537 27.6184 31.0861C27.6862 31.0591 27.7781 31.0299 27.8438 31.0017C32.84 28.8733 34.3614 24.2067 34.4062 20.375C34.4128 19.8361 34.8164 19.25 35.5 19.25C36.6561 19.25 38.7003 21.6373 38.7003 24.5915C38.7003 27.2589 38.5953 27.7201 37.6875 30.5C48.625 30.5 48.5484 30.662 49.5131 30.9219C50.7097 31.274 50.8125 32.2933 50.8125 32.6442C50.8125 33.0301 50.8016 32.9739 50.7873 33.3519Z" fill="#32323F"/>
<path fill-rule="evenodd" clip-rule="evenodd" d="M22.9219 46.25C22.0163 46.25 21.2812 47.006 21.2812 47.9375C21.2812 48.869 22.0163 49.625 22.9219 49.625C23.8275 49.625 24.5625 48.869 24.5625 47.9375C24.5625 47.006 23.8275 46.25 22.9219 46.25ZM22.9219 48.5C22.6211 48.5 22.375 48.2469 22.375 47.9375C22.375 47.6281 22.6211 47.375 22.9219 47.375C23.2227 47.375 23.4688 47.6281 23.4688 47.9375C23.4688 48.2469 23.2227 48.5 22.9219 48.5Z" fill="#32323F"/>
</svg>
